<svg id="Component_4_1" data-name="Component 4 – 1" xmlns="http://www.w3.org/2000/svg" width="1922.246" height="3279.806" viewBox="0 0 1922.246 3279.806">
  <path id="Path_138" data-name="Path 138" d="M1851.437,2754.867c-264.491-106.985-20.8-466.574-267.463-463.6s-306.1,80.239-442.8-53.493-276.378-127.788-157.506-347.7,344.73-466.574,496.292-439.828,205.055,344.73,398.222,208.027c7.92-5.6,13.781-9.1,21.148-9.933-.1,115.177-.121,1016.157.264,1110.714C1885.923,2763.466,1869.955,2762.357,1851.437,2754.867Z" transform="translate(22.546 -1448.244)" fill="#88a4cf"/>
  <path id="Path_137" data-name="Path 137" d="M955.85,2646.473c241.308-246.221,87.693-369.233-35.077-425.541s-483.694-51.692-587.079,123.693-132.31-105.072-322.465-45.072a67.53,67.53,0,0,0-12.509,5.393c.626,127.293.176,931.422-.266,947.875C162.313,3288.292,745.188,2861.425,955.85,2646.473Z" transform="translate(1.546 -1306.244)" fill="#88a4cf"/>
  <path id="Path_139" data-name="Path 139" d="M1206.554,3499.75c-280.477-.013-270.418-86.894-388.736-107.951s-109.007-60.949-15.43-116.867c243.688-145.619,83.211-374.448,404.166-347.7s359.589,20.8,499.264-98.07c95.537-81.308,144.5-131.822,214.883-141.519-2.45,76.7,0,728.4,0,728.4S1487.031,3499.763,1206.554,3499.75Z" transform="translate(1.546 -1306.244)" fill="#88a4cf"/>
  <path id="Path_141" data-name="Path 141" d="M-16.37,4061.744s832.514-82.067,933.561,215.89,643.2,185.9,616.643,375.686-722.871,383.458-722.871,383.458S391.231,5192.234,285,4995.323s275.024-536.443,0-468.959S-16.37,4442.79-16.37,4442.79Z" transform="translate(17.546 -1815.244)" fill="#88a4cf"/>
</svg>
